<svg enable-background="new 0 0 512 512" viewBox="0 0 512 512" xmlns="http://www.w3.org/2000/svg"><g id="_x32_4_Info"><g><path d="m442.096 23.496h-327.308c-35.24 0-63.904 28.667-63.904 63.908v3.143c-25.979 8.115-44.884 32.397-44.884 61.016v273.033c0 35.24 28.664 63.908 63.904 63.908h327.309c35.24 0 63.904-28.667 63.904-63.908v-3.266c25.96-8.12 44.884-32.29 44.884-60.894v-273.032c-.001-35.24-28.665-63.908-63.905-63.908zm3.395 401.1c0 26.623-21.66 48.283-48.279 48.283h-327.308c-26.619 0-48.279-21.66-48.279-48.283v-273.033c0-26.623 21.66-48.283 48.279-48.283h327.309c26.619 0 48.279 21.66 48.279 48.283v273.033zm44.884-64.159c0 19.864-12.075 36.923-29.259 44.316v-253.19c0-35.24-28.664-63.908-63.904-63.908-94.364.032-324.962-.133-330.704.172v-.424c0-26.623 21.66-48.283 48.279-48.283h327.309c26.619 0 48.279 21.66 48.279 48.283z"/><path d="m290.416 361.57c-16.472 10.033-29.129 13.55-34.775 9.647-6.76-4.711-5.981-21.431-4.654-28.332l25.948-99.693c.61-2.342.099-4.833-1.381-6.748-1.48-1.911-3.761-3.033-6.18-3.033-28.431 0-53.571 0-96.741 0-4.318 0-7.813 3.498-7.813 7.813s3.494 7.813 7.813 7.813h28.908l-20.05 81.787c-.961 2.815-22.934 69.298 23.361 96.577 36.074 21.25 75.896-19.773 96.397-55.256 4.033-6.979-3.957-14.772-10.833-10.575zm-77.629 52.372c-35.332-20.824-16.693-77.526-16.319-78.743l21.156-86.163h41.649l-23.506 90.359c-.664 3.326-5.966 32.829 10.918 44.624 6.523 4.551 14.748 5.596 24.879 3.094-15.203 18.291-38.181 38.964-58.777 26.829z"/><path d="m248.287 218.942c20.935 0 37.971-17.033 37.971-37.968 0-20.996-17.036-38.074-37.971-38.074-20.988 0-38.071 17.078-38.071 38.074 0 20.936 17.082 37.968 38.071 37.968zm0-60.417c12.321 0 22.346 10.071 22.346 22.449 0 12.321-10.025 22.343-22.346 22.343-12.375 0-22.446-10.021-22.446-22.343 0-12.378 10.071-22.449 22.446-22.449z"/></g></g><g id="Layer_1"/></svg>