<svg clip-rule="evenodd" fill-rule="evenodd" height="512" image-rendering="optimizeQuality" shape-rendering="geometricPrecision" text-rendering="geometricPrecision" viewBox="0 0 2.78 2.61" width="512" xmlns="http://www.w3.org/2000/svg" xmlns:xodm="http://www.corel.com/coreldraw/odm/2003"><g id="Layer_x0020_1"><path d="m2.51 2.06c0 .03-.03.05-.06.05h-.07v.07c0 .03-.02.06-.05.06s-.05-.03-.05-.06v-.07h-.08c-.02 0-.05-.02-.05-.05s.03-.05.05-.05h.08v-.07c0-.03.02-.06.05-.06s.05.03.05.06v.07h.07c.03 0 .06.02.06.05z"/><rect height=".1" rx=".05" transform="matrix(0 1 -1 0 .793 1.508)" width=".69"/><rect height=".1" rx=".05" transform="matrix(0 1 -1 0 1.09 1.508)" width=".69"/><rect height=".1" rx=".05" transform="matrix(0 1 -1 0 1.38 1.508)" width=".69"/><rect height=".1" rx=".05" transform="matrix(0 1 -1 0 1.677 1.508)" width=".69"/><rect height=".1" rx=".05" transform="matrix(0 .866 -1 0 1.974 1.508)" width=".69"/><path d="m2.33 1.61h.04l.04-.31h-2.15l.14.98c.02.13.14.23.28.23h1.31c.05 0 .1-.01.14-.04-.15-.07-.26-.23-.26-.41 0-.25.21-.45.46-.45zm.13.02c.19.05.32.23.32.43 0 .25-.2.45-.45.45-.03 0-.05 0-.08 0-.07.06-.16.1-.26.1h-1.31c-.19 0-.35-.13-.38-.32l-.15-1.01c-.09-.04-.15-.13-.15-.23 0-.13.11-.24.24-.24h.11l.38-.68c.06-.12.21-.16.33-.1.11.07.16.21.09.33l-.25.45h.86l-.25-.45c-.06-.12-.02-.26.1-.33.12-.06.27-.02.33.1l.38.68h.1c.14 0 .25.11.25.24 0 .1-.07.19-.15.23zm-.25-.82-.36-.64c-.03-.07-.12-.09-.19-.05s-.1.12-.06.19l.28.5zm-1.75 0h.33l.28-.5c.03-.07.01-.15-.06-.19s-.16-.02-.2.05zm-.22.39h2.18c.08 0 .15-.07.15-.15s-.07-.14-.15-.14h-2.18c-.08 0-.14.06-.14.14s.06.15.14.15zm2.09.51c.19 0 .35.16.35.35 0 .2-.16.36-.35.36-.2 0-.36-.16-.36-.36 0-.19.16-.35.36-.35z"/></g></svg>