<svg id="b" height="32" viewBox="0 0 32 32" width="32" xmlns="http://www.w3.org/2000/svg" data-name="Layer 1"><g fill="rgb(0,0,0)"><rect height="2" rx="1" width="5.096" x="5.451" y="24.735"/><path d="m11 15h-6c-2.206 0-4-1.794-4-4v-6c0-2.206 1.794-4 4-4h6c2.206 0 4 1.794 4 4v6c0 2.206-1.794 4-4 4zm-6-12c-1.103 0-2 .897-2 2v6c0 1.103.897 2 2 2h6c1.103 0 2-.897 2-2v-6c0-1.103-.897-2-2-2z"/><path d="m24 14.697c-1.024 0-2.048-.39-2.828-1.17l-2.699-2.699c-.756-.756-1.172-1.76-1.172-2.828s.416-2.073 1.172-2.828l2.699-2.699c1.562-1.562 4.098-1.56 5.657 0l2.698 2.699c.756.755 1.172 1.759 1.172 2.828s-.416 2.072-1.172 2.828l-2.698 2.699c-.779.78-1.805 1.17-2.829 1.17zm.001-11.395c-.513 0-1.025.195-1.415.585l-2.699 2.699c-.378.378-.586.88-.586 1.414s.208 1.036.586 1.414l2.699 2.699c.778.778 2.049.78 2.829 0l2.698-2.699c.378-.378.586-.88.586-1.414s-.208-1.036-.586-1.414l-2.698-2.699c-.39-.39-.902-.585-1.414-.585z"/><path d="m11 31h-6c-2.206 0-4-1.794-4-4v-6c0-2.206 1.794-4 4-4h6c2.206 0 4 1.794 4 4v6c0 2.206-1.794 4-4 4zm-6-12c-1.103 0-2 .897-2 2v6c0 1.103.897 2 2 2h6c1.103 0 2-.897 2-2v-6c0-1.103-.897-2-2-2z"/><path d="m27 31h-6c-2.206 0-4-1.794-4-4v-6c0-2.206 1.794-4 4-4h6c2.206 0 4 1.794 4 4v6c0 2.206-1.794 4-4 4zm-6-12c-1.103 0-2 .897-2 2v6c0 1.103.897 2 2 2h6c1.103 0 2-.897 2-2v-6c0-1.103-.897-2-2-2z"/></g></svg>