<svg id="Layer_2" height="512" viewBox="0 0 32 32" width="512" xmlns="http://www.w3.org/2000/svg"><path d="m26 1h-18c-1.654 0-3 1.346-3 3v2h-1c-.552 0-1 .448-1 1s.448 1 1 1h1v7h-1c-.552 0-1 .448-1 1s.448 1 1 1h1v7h-1c-.552 0-1 .448-1 1s.448 1 1 1h1v2c0 1.654 1.346 3 3 3h18c1.654 0 3-1.346 3-3v-24c0-1.654-1.346-3-3-3zm1 27c0 .551-.449 1-1 1h-18c-.551 0-1-.449-1-1v-2h1c.552 0 1-.448 1-1s-.448-1-1-1h-1v-7h1c.552 0 1-.448 1-1s-.448-1-1-1h-1v-7h1c.552 0 1-.448 1-1s-.448-1-1-1h-1v-2c0-.551.449-1 1-1h18c.551 0 1 .449 1 1zm-10.125-12c2.206 0 4-1.794 4-4s-1.794-4-4-4-4 1.794-4 4 1.794 4 4 4zm0-6c1.103 0 2 .897 2 2s-.897 2-2 2-2-.897-2-2 .897-2 2-2zm0 7c-2.738 0-5.128 1.85-5.811 4.499-.155.602-.025 1.229.357 1.723.383.495.961.778 1.586.778h7.735c.625 0 1.203-.284 1.586-.778.382-.493.512-1.121.357-1.723-.683-2.649-3.072-4.499-5.811-4.499zm-3.868 5-.006-.002c.455-1.765 2.048-2.998 3.874-2.998s3.419 1.233 3.868 3h-7.735z"/></svg>