<svg id="Layer_1" viewBox="0 0 48 48" xmlns="http://www.w3.org/2000/svg" data-name="Layer 1"><g fill="none" stroke="#353535" stroke-linecap="round" stroke-linejoin="round" stroke-width="2"><g><path d="m5.0476 6.79937a4 4 0 0 0 -4 4v24a4 4 0 0 0 4 4h10v8h1l8.88467-7.88467"/><path d="m13.0476.79937h30a4 4 0 0 1 4 4v22a4 4 0 0 1 -4 4h-10v8h-1l-9-8h-10a4 4 0 0 1 -4-4v-22a4 4 0 0 1 4-4z"/></g><g><path d="m29.768 18.226h-5.945"/><path d="m31.267 21.073-4.376-11.089-4.377 11.089"/><path d="m19.927 15.735h-4.129"/><path d="m21.318 9.984-5.52-.015v10.954"/><path d="m37.06566 21.307a2.57068 2.57068 0 0 0 2.83134-2.618c.084-1.07083.084-5.265 0-6.33585a2.57068 2.57068 0 0 0 -2.83135-2.618h-.32331a2.57067 2.57067 0 0 0 -2.83135 2.618c-.084 1.07084-.084 5.265 0 6.33586a2.57069 2.57069 0 0 0 2.83136 2.618z"/><path d="m39.395 20.485 1.25 1.25"/></g></g></svg>