<svg viewBox="0 0 50 50" xmlns="http://www.w3.org/2000/svg"><g id="register"><path d="m43 6h-36a5 5 0 0 0 -5 5v28a5 5 0 0 0 5 5h36a5 5 0 0 0 5-5v-28a5 5 0 0 0 -5-5zm-36 2h36a3 3 0 0 1 3 3v3h-42v-3a3 3 0 0 1 3-3zm36 34h-36a3 3 0 0 1 -3-3v-23h42v23a3 3 0 0 1 -3 3z"/><path d="m42 12h1a1 1 0 0 0 0-2h-1a1 1 0 0 0 0 2z"/><path d="m37 12h1a1 1 0 0 0 0-2h-1a1 1 0 0 0 0 2z"/><path d="m32 12h1a1 1 0 0 0 0-2h-1a1 1 0 0 0 0 2z"/><path d="m16.89 27.75a4 4 0 1 0 -5.78 0 6 6 0 0 0 -3.11 5.25 2 2 0 0 0 2 2h8a2 2 0 0 0 2-2 6 6 0 0 0 -3.11-5.25zm-4.89-2.75a2 2 0 1 1 2 2 2 2 0 0 1 -2-2zm-2 8a4 4 0 0 1 8 0z"/><path d="m27.45 21.11a1 1 0 0 0 -1.34.44l-1.38 2.76-1-1a1 1 0 0 0 -1.42 1.42l2 2a1 1 0 0 0 .69.27h.16a1 1 0 0 0 .73-.54l2-4a1 1 0 0 0 -.44-1.35z"/><path d="m41 23h-10a1 1 0 0 0 0 2h10a1 1 0 0 0 0-2z"/><path d="m27.45 29.11a1 1 0 0 0 -1.34.44l-1.38 2.76-1-1a1 1 0 0 0 -1.42 1.42l2 2a1 1 0 0 0 .69.27h.16a1 1 0 0 0 .73-.54l2-4a1 1 0 0 0 -.44-1.35z"/><path d="m41 31h-10a1 1 0 0 0 0 2h10a1 1 0 0 0 0-2z"/></g></svg>