<svg enable-background="new 0 0 72 72" height="512" viewBox="0 0 72 72" width="512" xmlns="http://www.w3.org/2000/svg"><g id="Layer_20"><g><path d="m37.27 39h.73c2.21 0 4-1.79 4-4s-1.79-4-4-4h-18.52l-9.79-12.24c-.66-.83-1.65-1.34-2.71-1.39-1.06-.06-2.1.34-2.84 1.09-1.41 1.41-1.46 3.67-.12 5.15l6.73 7.4h-2.75c-2.21 0-4 1.79-4 4s1.79 4 4 4h.73c-3.67 3.71-5.73 8.68-5.73 13.99 0 6.22 2.82 11.97 7.74 15.79.18.14.39.21.61.21h23.3c.22 0 .44-.07.61-.21 4.92-3.82 7.74-9.57 7.74-15.79 0-5.31-2.06-10.28-5.73-14zm-31.78-16.75c-.62-.69-.6-1.74.06-2.39.35-.35.82-.52 1.32-.5.5.03.94.26 1.26.65l8.79 10.99h-3.48zm.51 12.75c0-1.1.9-2 2-2h30c1.1 0 2 .9 2 2s-.9 2-2 2h-30c-1.1 0-2-.9-2-2zm28.3 32h-22.6c-4.26-3.43-6.7-8.52-6.7-14s2.44-10.57 6.7-14h22.6c4.26 3.43 6.7 8.52 6.7 14s-2.44 10.57-6.7 14z"/><path d="m33.49 42.29c-.19-.19-.44-.29-.7-.29h-19.58c-.26 0-.51.1-.7.29-2.91 2.84-4.51 6.64-4.51 10.71 0 4.63 2.09 8.93 5.73 11.79.18.14.39.21.62.21h17.3c.22 0 .44-.08.62-.21 3.64-2.86 5.73-7.16 5.73-11.79 0-4.07-1.6-7.87-4.51-10.71zm-2.19 20.71h-16.6c-2.99-2.48-4.7-6.1-4.7-10 0-3.39 1.28-6.57 3.63-9h18.75c2.34 2.43 3.63 5.61 3.63 9-.01 3.9-1.72 7.52-4.71 10z"/><path d="m58 13c-.55 0-1-.45-1-1 0-.27.1-.51.31-.71.18-.19.42-.29.69-.29h5c2.21 0 4-1.79 4-4s-1.79-4-4-4h-34c-2.21 0-4 1.79-4 4s1.79 4 4 4h5c.27 0 .51.1.71.31.19.18.29.42.29.69s-.1.51-.31.71c-.18.19-.42.29-.69.29-6.07 0-11 4.93-11 11v4c0 .55.45 1 1 1s1-.45 1-1v-4c0-4.96 4.04-9 9-9 .81 0 1.57-.32 2.11-.87.57-.56.89-1.32.89-2.13 0-.35-.06-.69-.17-1h18.34c-.11.32-.17.65-.17 1 0 1.65 1.35 3 3 3 4.96 0 9 4.04 9 9v40c0 1.65-1.35 3-3 3h-23c-.55 0-1 .45-1 1s.45 1 1 1h23c2.76 0 5-2.24 5-5v-40c0-6.07-4.93-11-11-11zm-29-4c-1.1 0-2-.9-2-2s.9-2 2-2h34c1.1 0 2 .9 2 2s-.9 2-2 2z"/><path d="m45 58c0 .55.45 1 1 1h18c.55 0 1-.45 1-1v-30c0-.55-.45-1-1-1h-36c-.55 0-1 .45-1 1s.45 1 1 1h35v28h-17c-.55 0-1 .45-1 1z"/><path d="m47.37 37.07c-.51-.21-1.09.04-1.3.56-.21.51.04 1.09.55 1.3.04.02 3.6 1.49 4.99 4.24-2.64.62-4.61 3-4.61 5.83 0 3.31 2.69 6 6 6s6-2.69 6-6c0-3.06-2.3-5.58-5.25-5.95-1.46-3.96-6.17-5.89-6.38-5.98zm9.63 11.93c0 2.21-1.79 4-4 4s-4-1.79-4-4 1.79-4 4-4 4 1.79 4 4z"/><path d="m59 31h-5c-.55 0-1 .45-1 1s.45 1 1 1h5c.55 0 1-.45 1-1s-.45-1-1-1z"/><path d="m59 34h-2c-.55 0-1 .45-1 1s.45 1 1 1h2c.55 0 1-.45 1-1s-.45-1-1-1z"/><path d="m59 37h-1c-.55 0-1 .45-1 1s.45 1 1 1h1c.55 0 1-.45 1-1s-.45-1-1-1z"/><path d="m28 48h1c.55 0 1-.45 1-1s-.45-1-1-1h-1c-.55 0-1 .45-1 1s.45 1 1 1z"/><path d="m16 48c-1.65 0-3 1.35-3 3s1.35 3 3 3 3-1.35 3-3-1.35-3-3-3zm0 4c-.55 0-1-.45-1-1s.45-1 1-1 1 .45 1 1-.45 1-1 1z"/><path d="m27 52c-2.76 0-5 2.24-5 5s2.24 5 5 5 5-2.24 5-5-2.24-5-5-5zm0 8c-1.65 0-3-1.35-3-3s1.35-3 3-3 3 1.35 3 3-1.35 3-3 3z"/></g></g></svg>