<svg id="Layer_1" viewBox="0 0 512 512" xmlns="http://www.w3.org/2000/svg" data-name="Layer 1"><path d="m366.9262 247.545c-7.2384 0-13.9037 2.1609-19.1812 5.7753v-3.8904c0-14.7686-13.8877-26.7857-30.9584-26.7857-7.2384 0-13.9057 2.1609-19.1832 5.7753v-3.8904c0-14.7686-13.8877-26.7857-30.9604-26.7857-7.2384 0-13.9037 2.1609-19.1812 5.7753v-55.1104c0-14.7648-13.8877-26.7818-30.9584-26.7818s-30.9604 12.017-30.9604 26.7818v124.7756l-7.2005-10.4741c-9.325-13.5677-29.8941-18.3015-45.8585-10.5712-9.6286 4.6677-16.7432 13.7815-18.1249 23.2179-1.0423 7.1239 1.26 13.6299 6.4836 18.3209 17.2463 15.4799 33.7659 42.6658 49.7442 68.954 12.8087 21.0786 26.0046 42.7764 40.1366 59.6257-4.8303 3.1774-8.0122 8.5563-8.0122 14.645v36.3969c0 9.7395 8.1409 17.668 18.1489 17.668h150.2172c10.008 0 18.1509-7.9284 18.1509-17.668v-36.3969c0-5.4763-2.6288-10.3174-6.6616-13.5599 8.5388-7.3146 11.4626-12.7868 14.9123-21.3485.2676-.6646.4054-1.3758.4054-2.0909v-125.5723c0-14.7686-13.8877-26.7857-30.9584-26.7857zm10.5251 225.7542c0 3.4201-2.8594 6.2028-6.3738 6.2028h-150.2172c-3.5124 0-6.3718-2.7827-6.3718-6.2028v-36.3969c0-3.4201 2.8594-6.1989 6.3718-6.1989h150.2172c3.5144 0 6.3738 2.7788 6.3738 6.1989zm8.6561-74.4845c-3.1297 7.659-5.5319 11.9162-17.0087 20.4235h-145.5274c-14.9261-16.5739-29.1168-39.8435-42.8486-62.4403-16.4097-27.0033-33.3785-54.9238-51.8928-71.5463-2.3582-2.1181-3.3047-4.9009-2.8095-8.2782.8387-5.7287 5.5451-11.5856 11.7152-14.5743 10.6569-5.1729 24.7763-2.1065 30.8186 6.6848l17.9832 26.156c1.4457 2.1026 4.1254 3.0315 6.6054 2.2969 2.482-.7345 4.1773-2.9615 4.1773-5.4838v-143.6445c0-8.4453 8.6062-15.3166 19.1832-15.3166s19.1812 6.8713 19.1812 15.3166v111.2351c0 3.1636 2.6358 5.7326 5.8886 5.7326s5.8886-2.569 5.8886-5.7326v-35.1144c0-8.4492 8.6042-15.3205 19.1812-15.3205s19.1832 6.8713 19.1832 15.3205v60.0151c0 3.1636 2.6358 5.7326 5.8886 5.7326s5.8886-2.569 5.8886-5.7326v-35.1144c0-8.4492 8.6062-15.3205 19.1832-15.3205s19.1812 6.8713 19.1812 15.3205v60.019c0 3.1636 2.6358 5.7326 5.8886 5.7326s5.8886-2.569 5.8886-5.7326v-35.1183c0-8.4492 8.6042-15.3205 19.1812-15.3205s19.1812 6.8713 19.1812 15.3205v124.4841zm-217.7449-213.1271c.8167.3848 1.6913.5713 2.5579.5713 1.5974 0 3.1689-.6335 4.3091-1.8228 1.7592-1.8383 2.0867-4.5783.8047-6.7547l-20.4532-34.784c10.2216-13.2413 15.601-28.9427 15.601-45.6507 0-42.0246-35.1297-76.214-78.3104-76.214s-78.3125 34.1896-78.3125 76.2141 35.1317 76.2101 78.3124 76.2101c11.9728 0 23.0251-2.4291 33.688-7.4115l41.803 19.6423zm-44.5885-31.1035c-9.7643 4.9864-19.8741 7.4076-30.9025 7.4076-36.6872 0-66.5353-29.0437-66.5353-64.745s29.8482-64.7487 66.5353-64.7487 66.5333 29.0437 66.5333 64.7488c0 15.34-5.3374 29.6772-15.4353 41.4649-1.5755 1.8383-1.8111 4.4384-.5891 6.5137l12.9972 22.1024-27.3082-12.8293c-.8087-.3809-1.6853-.5713-2.5599-.5713-.9405 0-1.881.2215-2.7356.6568zm-3.3127-78.165c0 11.3602-6.4716 21.6555-16.4876 26.2221-3.3147 1.5118-5.2156 4.4228-5.2156 7.9867v9.1449c0 3.1636-2.6358 5.7326-5.8886 5.7326s-5.8886-2.569-5.8886-5.7326v-9.1449c0-7.9517 4.5966-14.9902 11.9948-18.3636 5.8985-2.6894 9.7084-8.9078 9.7084-15.8452 0-9.4714-7.0946-17.1744-15.8146-17.1744s-15.8146 7.703-15.8146 17.1744c0 3.1636-2.6358 5.7326-5.8886 5.7326s-5.8886-2.569-5.8886-5.7326c0-15.7908 12.3782-28.6395 27.5918-28.6395s27.5918 12.8487 27.5918 28.6395zm-21.5175 64.5545c0 3.1636-2.6358 5.7326-5.8886 5.7326s-6.0723-2.569-6.0723-5.7326 2.4521-5.7326 5.7049-5.7326h.3674c3.2528 0 5.8886 2.569 5.8886 5.7326zm320.1847-119.9408c-43.1808 0-78.3104 34.1894-78.3104 76.214 0 16.708 5.3794 32.4094 15.601 45.6507l-20.4532 34.784c-1.2819 2.1764-.9545 4.9164.8047 6.7547 1.1402 1.1893 2.7117 1.8228 4.3091 1.8228.8666 0 1.7412-.1866 2.5579-.5713l41.803-19.6423c10.6649 4.9825 21.7172 7.4115 33.688 7.4115 43.1808 0 78.3124-34.1894 78.3124-76.2101s-35.1317-76.214-78.3124-76.214zm0 140.9589c-11.0263 0-21.1361-2.4213-30.9025-7.4076-1.6553-.8395-3.6162-.8745-5.2955-.0855l-27.3082 12.8293 12.9972-22.1024c1.222-2.0754.9864-4.6754-.5891-6.5137-10.0978-11.7877-15.4353-26.125-15.4353-41.4649 0-35.7051 29.8461-64.7488 66.5333-64.7488s66.5353 29.0437 66.5353 64.7488-29.8481 64.745-66.5353 64.745zm27.5938-85.5726c0 11.3641-6.4716 21.6555-16.4896 26.2221-3.3127 1.5118-5.2136 4.4228-5.2136 7.9867v9.1449c0 3.1636-2.6358 5.7326-5.8886 5.7326s-5.8886-2.569-5.8886-5.7326v-9.1449c0-7.9517 4.5946-14.9902 11.9928-18.3636 5.8985-2.6894 9.7104-8.9078 9.7104-15.8452 0-9.4714-7.0946-17.1744-15.8146-17.1744s-15.8146 7.703-15.8146 17.1744c0 3.1636-2.6358 5.7326-5.8886 5.7326s-5.8886-2.569-5.8886-5.7326c0-15.7908 12.3782-28.6395 27.5918-28.6395s27.5918 12.8487 27.5918 28.6395zm-21.5195 64.5545c0 3.1636-2.6358 5.7326-5.8886 5.7326s-6.0723-2.569-6.0723-5.7326 2.4541-5.7326 5.7069-5.7326h.3654c3.2528 0 5.8886 2.569 5.8886 5.7326z"/></svg>