<svg id="layer_1" enable-background="new 0 0 32 32" height="512" viewBox="0 0 32 32" width="512" xmlns="http://www.w3.org/2000/svg"><path d="m2.6738281 6.784668v17.0302734c0 2.6381836 2.1464844 4.7841797 4.7851562 4.7841797h12.18573l1.1882935.8647461c.4921875.3583984 1.0693359.5375977 1.6464844.5375977.578125 0 1.1552734-.1791992 1.6484375-.5375977l3.3662109-2.4506836c.6533203-.4775391 1.1357422-1.046875 1.4316406-1.6933594.7646484-1.6723633.4042969-3.6694336-.8955078-4.9692383-.6947021-.6947021-1.5836182-1.1113892-2.5410156-1.2385254v-12.3273925c0-2.6381836-2.1464844-4.784668-4.7851562-4.784668h-13.2451172c-2.6386719 0-4.7851563 2.1464844-4.7851563 4.784668zm18.0302735-2.784668c1.5361328 0 2.7851562 1.2490234 2.7851562 2.784668v12.5079956c-.354126.1191406-.6948242.2755127-1.0087891.4817505-.7138672-.46875-1.5488281-.7197266-2.421875-.7197266-1.1816406 0-2.2929688.4599609-3.1279297 1.2954102-1.3007812 1.2998047-1.6611328 3.296875-.8964844 4.9711914.2147827.4682007.5307617.8951416.9365234 1.277832h-9.5117186c-1.5361328 0-2.7851562-1.2490234-2.7851562-2.7841797v-17.0302734c-.0000001-1.5356446 1.2490234-2.784668 2.7851562-2.784668zm5.6113281 21.3969727-3.3642578 2.449707c-.2832031.2041016-.6601562.2050781-.9414062 0l-3.3642578-2.4487305c-.3691406-.2695312-.6435547-.5844727-.7929688-.9091797-.4179688-.9169922-.2207031-2.0117188.4921875-2.7241211.4580078-.4580078 1.0664062-.7099609 1.7138672-.7099609s1.2568359.2519531 1.7148438.7099609c.3759766.3754883 1.0400391.3745117 1.414053 0 .9160252-.9160156 2.5127048-.9160156 3.4287205 0 .7119141.7124023.9091797 1.8071289.4912109 2.7226562-.1494142.326172-.4238282.6411134-.7919923.9096681z"/><path d="m12.1894531 16.2998047h7.5693359c.5527344 0 1-.4477539 1-1s-.4472656-1-1-1h-7.5693359c-.5527344 0-1 .4477539-1 1s.4472657 1 1 1z"/><path d="m12.1894531 11.5688477h7.5693359c.5527344 0 1-.4477539 1-1s-.4472656-1-1-1h-7.5693359c-.5527344 0-1 .4477539-1 1s.4472657 1 1 1z"/><path d="m12.1894531 21.0302734h2.2548828c.5527344 0 1-.4477539 1-1s-.4472656-1-1-1h-2.2548828c-.5527344 0-1 .4477539-1 1s.4472657 1 1 1z"/><path d="m8.4248047 11.5688477c.5527344 0 1-.4477539 1-1s-.4472656-1-1-1h-.0097656c-.5517578 0-.9951172.4477539-.9951172 1s.453125 1 1.0048828 1z"/><path d="m8.4248047 16.2998047c.5527344 0 1-.4477539 1-1s-.4472656-1-1-1h-.0097656c-.5517578 0-.9951172.4477539-.9951172 1s.453125 1 1.0048828 1z"/><path d="m8.4248047 21.0302734c.5527344 0 1-.4477539 1-1s-.4472656-1-1-1h-.0097656c-.5517578 0-.9951172.4477539-.9951172 1s.453125 1 1.0048828 1z"/></svg>